<svg xmlns="http://www.w3.org/2000/svg" width="1280" height="480" viewBox="0 0 1280 480">
<defs>
  <linearGradient id="bg" x1="0" y1="0" x2="1" y2="1">
    <stop offset="0" stop-color="#04050d"/><stop offset="0.5" stop-color="#0a1030"/>
    <stop offset="1" stop-color="#121a4d"/>
  </linearGradient>
  <radialGradient id="halo" cx="74%" cy="46%" r="42%">
    <stop offset="0" stop-color="#22d3ff" stop-opacity="0.42"/>
    <stop offset="0.55" stop-color="#3355ff" stop-opacity="0.14"/>
    <stop offset="1" stop-color="#3355ff" stop-opacity="0"/>
  </radialGradient>
  <filter id="glow" x="-40%" y="-40%" width="180%" height="180%">
    <feGaussianBlur stdDeviation="3.2" result="b"/>
    <feMerge><feMergeNode in="b"/><feMergeNode in="SourceGraphic"/></feMerge>
  </filter>
  <pattern id="dots" width="26" height="26" patternUnits="userSpaceOnUse">
    <circle cx="2" cy="2" r="1" fill="#7fdfff" opacity="0.07"/>
  </pattern>
  <style>
    .body{stroke:#38e0ff;stroke-width:2.4;fill:none;stroke-linecap:round;stroke-linejoin:round;}
    .key{stroke:#5fe6ff;stroke-width:1.5;fill:none;stroke-linecap:round;stroke-linejoin:round;}
    .mag{stroke:#ff5ce1;stroke-width:1.8;fill:none;stroke-linecap:round;stroke-linejoin:round;}
    .grn{stroke:#4dffa6;stroke-width:1.8;fill:none;stroke-linecap:round;stroke-linejoin:round;}
    .floor{stroke:#2f7bd6;stroke-width:1;fill:none;opacity:0.16;}
    .cable{stroke:#38e0ff;stroke-width:2.2;fill:none;stroke-linecap:round;}
    .node{fill:#bff4ff;}
    .dim{stroke:#8fd0ff;stroke-width:1.2;fill:none;opacity:0.6;stroke-dasharray:5 4;}
    .dimt{fill:#a9ecff;font-family:ui-monospace,Menlo,Consolas,monospace;font-size:20px;font-weight:600;letter-spacing:2.5px;opacity:0.95;}
    .h1{fill:#f3f7ff;font-family:-apple-system,BlinkMacSystemFont,'Segoe UI',Helvetica,Arial,sans-serif;font-weight:800;font-size:52px;letter-spacing:-1.6px;}
    .sub{fill:#cfe6ff;font-family:-apple-system,BlinkMacSystemFont,'Segoe UI',Helvetica,Arial,sans-serif;font-weight:400;font-size:22px;}
    .tag{fill:#5fe6ff;font-family:ui-monospace,Menlo,Consolas,monospace;font-size:14px;letter-spacing:2px;}
    .pill{fill:#7fe0ff;font-family:-apple-system,BlinkMacSystemFont,'Segoe UI',sans-serif;font-weight:600;font-size:16px;}
  </style>
</defs>
<rect width="1280" height="480" rx="28" fill="url(#bg)"/>
<rect width="1280" height="480" rx="28" fill="url(#dots)"/>
<rect width="1280" height="480" rx="28" fill="url(#halo)"/>
<g>
<line x1="954.5" y1="12.4" x2="514.0" y2="266.7" class="floor"/>
<line x1="996.2" y1="36.5" x2="555.7" y2="290.8" class="floor"/>
<line x1="1037.9" y1="60.6" x2="597.4" y2="314.9" class="floor"/>
<line x1="1079.6" y1="84.7" x2="639.2" y2="339.0" class="floor"/>
<line x1="1121.4" y1="108.8" x2="680.9" y2="363.1" class="floor"/>
<line x1="1163.1" y1="132.9" x2="722.6" y2="387.2" class="floor"/>
<line x1="1204.8" y1="157.0" x2="764.4" y2="411.3" class="floor"/>
<line x1="1246.6" y1="181.1" x2="806.1" y2="435.4" class="floor"/>
<line x1="1288.3" y1="205.2" x2="847.8" y2="459.5" class="floor"/>
<line x1="1330.0" y1="229.3" x2="889.5" y2="483.6" class="floor"/>
<line x1="1371.7" y1="253.4" x2="931.3" y2="507.7" class="floor"/>
<line x1="954.5" y1="12.4" x2="1394.9" y2="266.7" class="floor"/>
<line x1="912.7" y1="36.5" x2="1353.2" y2="290.8" class="floor"/>
<line x1="871.0" y1="60.6" x2="1311.5" y2="314.9" class="floor"/>
<line x1="829.3" y1="84.7" x2="1269.7" y2="339.0" class="floor"/>
<line x1="787.5" y1="108.8" x2="1228.0" y2="363.1" class="floor"/>
<line x1="745.8" y1="132.9" x2="1186.3" y2="387.2" class="floor"/>
<line x1="704.1" y1="157.0" x2="1144.6" y2="411.3" class="floor"/>
<line x1="662.4" y1="181.1" x2="1102.8" y2="435.4" class="floor"/>
<line x1="620.6" y1="205.2" x2="1061.1" y2="459.5" class="floor"/>
<line x1="578.9" y1="229.3" x2="1019.4" y2="483.6" class="floor"/>
<line x1="537.2" y1="253.4" x2="977.6" y2="507.7" class="floor"/>
</g>
<g filter="url(#glow)">
<path class="cable" d="M889.5 360.4 C866.4 416.6 912.7 464.8 1031.0 533.1"/>
<line x1="959.1" y1="95.4" x2="1204.8" y2="237.3" class="body"/>
<line x1="1204.8" y1="237.3" x2="884.9" y2="422.0" class="body"/>
<line x1="884.9" y1="422.0" x2="639.2" y2="280.1" class="body"/>
<line x1="639.2" y1="280.1" x2="959.1" y2="95.4" class="body"/>
<line x1="959.1" y1="74.0" x2="1204.8" y2="215.9" class="body"/>
<line x1="1204.8" y1="215.9" x2="884.9" y2="400.6" class="body"/>
<line x1="884.9" y1="400.6" x2="639.2" y2="258.7" class="body"/>
<line x1="639.2" y1="258.7" x2="959.1" y2="74.0" class="body"/>
<line x1="959.1" y1="95.4" x2="959.1" y2="74.0" class="body"/>
<line x1="1204.8" y1="237.3" x2="1204.8" y2="215.9" class="body"/>
<line x1="884.9" y1="422.0" x2="884.9" y2="400.6" class="body"/>
<line x1="639.2" y1="280.1" x2="639.2" y2="258.7" class="body"/>
<line x1="954.5" y1="98.1" x2="1163.1" y2="218.6" class="body"/>
<line x1="1163.1" y1="218.6" x2="889.5" y2="376.5" class="body"/>
<line x1="889.5" y1="376.5" x2="680.9" y2="256.0" class="body"/>
<line x1="680.9" y1="256.0" x2="954.5" y2="98.1" class="body"/>
<line x1="954.5" y1="76.7" x2="1163.1" y2="197.1" class="body"/>
<line x1="1163.1" y1="197.1" x2="889.5" y2="355.1" class="body"/>
<line x1="889.5" y1="355.1" x2="680.9" y2="234.6" class="body"/>
<line x1="680.9" y1="234.6" x2="954.5" y2="76.7" class="body"/>
<line x1="954.5" y1="98.1" x2="954.5" y2="76.7" class="body"/>
<line x1="1163.1" y1="218.6" x2="1163.1" y2="197.1" class="body"/>
<line x1="889.5" y1="376.5" x2="889.5" y2="355.1" class="body"/>
<line x1="680.9" y1="256.0" x2="680.9" y2="234.6" class="body"/>
<line x1="894.2" y1="127.5" x2="945.2" y2="157.0" class="key"/>
<line x1="945.2" y1="157.0" x2="894.2" y2="186.4" class="key"/>
<line x1="894.2" y1="186.4" x2="843.2" y2="157.0" class="key"/>
<line x1="843.2" y1="157.0" x2="894.2" y2="127.5" class="key"/>
<line x1="894.2" y1="103.4" x2="945.2" y2="132.9" class="key"/>
<line x1="945.2" y1="132.9" x2="894.2" y2="162.3" class="key"/>
<line x1="894.2" y1="162.3" x2="843.2" y2="132.9" class="key"/>
<line x1="843.2" y1="132.9" x2="894.2" y2="103.4" class="key"/>
<line x1="894.2" y1="127.5" x2="894.2" y2="103.4" class="key"/>
<line x1="945.2" y1="157.0" x2="945.2" y2="132.9" class="key"/>
<line x1="894.2" y1="186.4" x2="894.2" y2="162.3" class="key"/>
<line x1="843.2" y1="157.0" x2="843.2" y2="132.9" class="key"/>
<line x1="959.1" y1="165.0" x2="1010.1" y2="194.5" class="key"/>
<line x1="1010.1" y1="194.5" x2="959.1" y2="223.9" class="key"/>
<line x1="959.1" y1="223.9" x2="908.1" y2="194.5" class="key"/>
<line x1="908.1" y1="194.5" x2="959.1" y2="165.0" class="key"/>
<line x1="959.1" y1="140.9" x2="1010.1" y2="170.4" class="key"/>
<line x1="1010.1" y1="170.4" x2="959.1" y2="199.8" class="key"/>
<line x1="959.1" y1="199.8" x2="908.1" y2="170.4" class="key"/>
<line x1="908.1" y1="170.4" x2="959.1" y2="140.9" class="key"/>
<line x1="959.1" y1="165.0" x2="959.1" y2="140.9" class="key"/>
<line x1="1010.1" y1="194.5" x2="1010.1" y2="170.4" class="key"/>
<line x1="959.1" y1="223.9" x2="959.1" y2="199.8" class="key"/>
<line x1="908.1" y1="194.5" x2="908.1" y2="170.4" class="key"/>
<line x1="1024.0" y1="202.5" x2="1075.0" y2="231.9" class="key"/>
<line x1="1075.0" y1="231.9" x2="1024.0" y2="261.4" class="key"/>
<line x1="1024.0" y1="261.4" x2="973.0" y2="231.9" class="key"/>
<line x1="973.0" y1="231.9" x2="1024.0" y2="202.5" class="key"/>
<line x1="1024.0" y1="178.4" x2="1075.0" y2="207.8" class="key"/>
<line x1="1075.0" y1="207.8" x2="1024.0" y2="237.3" class="key"/>
<line x1="1024.0" y1="237.3" x2="973.0" y2="207.8" class="key"/>
<line x1="973.0" y1="207.8" x2="1024.0" y2="178.4" class="key"/>
<line x1="1024.0" y1="202.5" x2="1024.0" y2="178.4" class="key"/>
<line x1="1075.0" y1="231.9" x2="1075.0" y2="207.8" class="key"/>
<line x1="1024.0" y1="261.4" x2="1024.0" y2="237.3" class="key"/>
<line x1="973.0" y1="231.9" x2="973.0" y2="207.8" class="key"/>
<line x1="829.3" y1="165.0" x2="880.3" y2="194.5" class="key"/>
<line x1="880.3" y1="194.5" x2="829.3" y2="223.9" class="key"/>
<line x1="829.3" y1="223.9" x2="778.3" y2="194.5" class="key"/>
<line x1="778.3" y1="194.5" x2="829.3" y2="165.0" class="key"/>
<line x1="829.3" y1="140.9" x2="880.3" y2="170.4" class="key"/>
<line x1="880.3" y1="170.4" x2="829.3" y2="199.8" class="key"/>
<line x1="829.3" y1="199.8" x2="778.3" y2="170.4" class="key"/>
<line x1="778.3" y1="170.4" x2="829.3" y2="140.9" class="key"/>
<line x1="829.3" y1="165.0" x2="829.3" y2="140.9" class="key"/>
<line x1="880.3" y1="194.5" x2="880.3" y2="170.4" class="key"/>
<line x1="829.3" y1="223.9" x2="829.3" y2="199.8" class="key"/>
<line x1="778.3" y1="194.5" x2="778.3" y2="170.4" class="key"/>
<line x1="894.2" y1="202.5" x2="945.2" y2="231.9" class="mag"/>
<line x1="945.2" y1="231.9" x2="894.2" y2="261.4" class="mag"/>
<line x1="894.2" y1="261.4" x2="843.2" y2="231.9" class="mag"/>
<line x1="843.2" y1="231.9" x2="894.2" y2="202.5" class="mag"/>
<line x1="894.2" y1="178.4" x2="945.2" y2="207.8" class="mag"/>
<line x1="945.2" y1="207.8" x2="894.2" y2="237.3" class="mag"/>
<line x1="894.2" y1="237.3" x2="843.2" y2="207.8" class="mag"/>
<line x1="843.2" y1="207.8" x2="894.2" y2="178.4" class="mag"/>
<line x1="894.2" y1="202.5" x2="894.2" y2="178.4" class="mag"/>
<line x1="945.2" y1="231.9" x2="945.2" y2="207.8" class="mag"/>
<line x1="894.2" y1="261.4" x2="894.2" y2="237.3" class="mag"/>
<line x1="843.2" y1="231.9" x2="843.2" y2="207.8" class="mag"/>
<line x1="959.1" y1="240.0" x2="1010.1" y2="269.4" class="key"/>
<line x1="1010.1" y1="269.4" x2="959.1" y2="298.9" class="key"/>
<line x1="959.1" y1="298.9" x2="908.1" y2="269.4" class="key"/>
<line x1="908.1" y1="269.4" x2="959.1" y2="240.0" class="key"/>
<line x1="959.1" y1="215.9" x2="1010.1" y2="245.3" class="key"/>
<line x1="1010.1" y1="245.3" x2="959.1" y2="274.8" class="key"/>
<line x1="959.1" y1="274.8" x2="908.1" y2="245.3" class="key"/>
<line x1="908.1" y1="245.3" x2="959.1" y2="215.9" class="key"/>
<line x1="959.1" y1="240.0" x2="959.1" y2="215.9" class="key"/>
<line x1="1010.1" y1="269.4" x2="1010.1" y2="245.3" class="key"/>
<line x1="959.1" y1="298.9" x2="959.1" y2="274.8" class="key"/>
<line x1="908.1" y1="269.4" x2="908.1" y2="245.3" class="key"/>
<line x1="764.4" y1="202.5" x2="815.4" y2="231.9" class="grn"/>
<line x1="815.4" y1="231.9" x2="764.4" y2="261.4" class="grn"/>
<line x1="764.4" y1="261.4" x2="713.4" y2="231.9" class="grn"/>
<line x1="713.4" y1="231.9" x2="764.4" y2="202.5" class="grn"/>
<line x1="764.4" y1="178.4" x2="815.4" y2="207.8" class="grn"/>
<line x1="815.4" y1="207.8" x2="764.4" y2="237.3" class="grn"/>
<line x1="764.4" y1="237.3" x2="713.4" y2="207.8" class="grn"/>
<line x1="713.4" y1="207.8" x2="764.4" y2="178.4" class="grn"/>
<line x1="764.4" y1="202.5" x2="764.4" y2="178.4" class="grn"/>
<line x1="815.4" y1="231.9" x2="815.4" y2="207.8" class="grn"/>
<line x1="764.4" y1="261.4" x2="764.4" y2="237.3" class="grn"/>
<line x1="713.4" y1="231.9" x2="713.4" y2="207.8" class="grn"/>
<line x1="829.3" y1="240.0" x2="880.3" y2="269.4" class="key"/>
<line x1="880.3" y1="269.4" x2="829.3" y2="298.9" class="key"/>
<line x1="829.3" y1="298.9" x2="778.3" y2="269.4" class="key"/>
<line x1="778.3" y1="269.4" x2="829.3" y2="240.0" class="key"/>
<line x1="829.3" y1="215.9" x2="880.3" y2="245.3" class="key"/>
<line x1="880.3" y1="245.3" x2="829.3" y2="274.8" class="key"/>
<line x1="829.3" y1="274.8" x2="778.3" y2="245.3" class="key"/>
<line x1="778.3" y1="245.3" x2="829.3" y2="215.9" class="key"/>
<line x1="829.3" y1="240.0" x2="829.3" y2="215.9" class="key"/>
<line x1="880.3" y1="269.4" x2="880.3" y2="245.3" class="key"/>
<line x1="829.3" y1="298.9" x2="829.3" y2="274.8" class="key"/>
<line x1="778.3" y1="269.4" x2="778.3" y2="245.3" class="key"/>
<line x1="894.2" y1="277.4" x2="945.2" y2="306.9" class="key"/>
<line x1="945.2" y1="306.9" x2="894.2" y2="336.3" class="key"/>
<line x1="894.2" y1="336.3" x2="843.2" y2="306.9" class="key"/>
<line x1="843.2" y1="306.9" x2="894.2" y2="277.4" class="key"/>
<line x1="894.2" y1="253.4" x2="945.2" y2="282.8" class="key"/>
<line x1="945.2" y1="282.8" x2="894.2" y2="312.2" class="key"/>
<line x1="894.2" y1="312.2" x2="843.2" y2="282.8" class="key"/>
<line x1="843.2" y1="282.8" x2="894.2" y2="253.4" class="key"/>
<line x1="894.2" y1="277.4" x2="894.2" y2="253.4" class="key"/>
<line x1="945.2" y1="306.9" x2="945.2" y2="282.8" class="key"/>
<line x1="894.2" y1="336.3" x2="894.2" y2="312.2" class="key"/>
<line x1="843.2" y1="306.9" x2="843.2" y2="282.8" class="key"/>
<line x1="959.1" y1="100.8" x2="1028.6" y2="140.9" class="key"/>
<line x1="1028.6" y1="140.9" x2="991.5" y2="162.3" class="key"/>
<line x1="991.5" y1="162.3" x2="922.0" y2="122.2" class="key"/>
<line x1="922.0" y1="122.2" x2="959.1" y2="100.8" class="key"/>
<line x1="959.1" y1="84.7" x2="1028.6" y2="124.9" class="key"/>
<line x1="1028.6" y1="124.9" x2="991.5" y2="146.3" class="key"/>
<line x1="991.5" y1="146.3" x2="922.0" y2="106.1" class="key"/>
<line x1="922.0" y1="106.1" x2="959.1" y2="84.7" class="key"/>
<line x1="959.1" y1="100.8" x2="959.1" y2="84.7" class="key"/>
<line x1="1028.6" y1="140.9" x2="1028.6" y2="124.9" class="key"/>
<line x1="991.5" y1="162.3" x2="991.5" y2="146.3" class="key"/>
<line x1="922.0" y1="122.2" x2="922.0" y2="106.1" class="key"/>
<line x1="1042.6" y1="149.0" x2="1116.7" y2="191.8" class="key"/>
<line x1="1116.7" y1="191.8" x2="1079.6" y2="213.2" class="key"/>
<line x1="1079.6" y1="213.2" x2="1005.5" y2="170.4" class="key"/>
<line x1="1005.5" y1="170.4" x2="1042.6" y2="149.0" class="key"/>
<line x1="1042.6" y1="132.9" x2="1116.7" y2="175.7" class="key"/>
<line x1="1116.7" y1="175.7" x2="1079.6" y2="197.1" class="key"/>
<line x1="1079.6" y1="197.1" x2="1005.5" y2="154.3" class="key"/>
<line x1="1005.5" y1="154.3" x2="1042.6" y2="132.9" class="key"/>
<line x1="1042.6" y1="149.0" x2="1042.6" y2="132.9" class="key"/>
<line x1="1116.7" y1="191.8" x2="1116.7" y2="175.7" class="key"/>
<line x1="1079.6" y1="213.2" x2="1079.6" y2="197.1" class="key"/>
<line x1="1005.5" y1="170.4" x2="1005.5" y2="154.3" class="key"/>
<circle cx="894.2" cy="103.4" r="2.3" class="node"/>
<circle cx="945.2" cy="132.9" r="2.3" class="node"/>
<circle cx="894.2" cy="162.3" r="2.3" class="node"/>
<circle cx="843.2" cy="132.9" r="2.3" class="node"/>
<circle cx="959.1" cy="140.9" r="2.3" class="node"/>
<circle cx="1010.1" cy="170.4" r="2.3" class="node"/>
<circle cx="959.1" cy="199.8" r="2.3" class="node"/>
<circle cx="908.1" cy="170.4" r="2.3" class="node"/>
<circle cx="1024.0" cy="178.4" r="2.3" class="node"/>
<circle cx="1075.0" cy="207.8" r="2.3" class="node"/>
<circle cx="1024.0" cy="237.3" r="2.3" class="node"/>
<circle cx="973.0" cy="207.8" r="2.3" class="node"/>
<circle cx="829.3" cy="140.9" r="2.3" class="node"/>
<circle cx="880.3" cy="170.4" r="2.3" class="node"/>
<circle cx="829.3" cy="199.8" r="2.3" class="node"/>
<circle cx="778.3" cy="170.4" r="2.3" class="node"/>
<circle cx="894.2" cy="178.4" r="2.3" class="node"/>
<circle cx="945.2" cy="207.8" r="2.3" class="node"/>
<circle cx="894.2" cy="237.3" r="2.3" class="node"/>
<circle cx="843.2" cy="207.8" r="2.3" class="node"/>
<circle cx="959.1" cy="215.9" r="2.3" class="node"/>
<circle cx="1010.1" cy="245.3" r="2.3" class="node"/>
<circle cx="959.1" cy="274.8" r="2.3" class="node"/>
<circle cx="908.1" cy="245.3" r="2.3" class="node"/>
<circle cx="764.4" cy="178.4" r="2.3" class="node"/>
<circle cx="815.4" cy="207.8" r="2.3" class="node"/>
<circle cx="764.4" cy="237.3" r="2.3" class="node"/>
<circle cx="713.4" cy="207.8" r="2.3" class="node"/>
<circle cx="829.3" cy="215.9" r="2.3" class="node"/>
<circle cx="880.3" cy="245.3" r="2.3" class="node"/>
<circle cx="829.3" cy="274.8" r="2.3" class="node"/>
<circle cx="778.3" cy="245.3" r="2.3" class="node"/>
<circle cx="894.2" cy="253.4" r="2.3" class="node"/>
<circle cx="945.2" cy="282.8" r="2.3" class="node"/>
<circle cx="894.2" cy="312.2" r="2.3" class="node"/>
<circle cx="843.2" cy="282.8" r="2.3" class="node"/>
</g>
<line x1="70" y1="375" x2="116" y2="375" class="dim"/>
<text x="70" y="392" class="dimt" filter="url(#glow)">MX KEYPAD  ·  GRID 3 × 3</text>
<g>
<rect x="46" y="112" width="7" height="150" rx="4" fill="#38e0ff"/>
<text x="70" y="120" class="tag">// LOGI MX KEYPAD</text>
<text x="68" y="176" class="h1">Microsoft Teams</text>
<text x="68" y="234" class="h1">Controls</text>
<text x="70" y="276" class="sub">Atajos de Teams para tu Logitech MX Keypad</text>
<rect x="70" y="300" width="150" height="34" rx="17" fill="none" stroke="#38e0ff" stroke-opacity="0.5"/>
<text x="145" y="323" class="pill" text-anchor="middle">22 acciones</text>
<rect x="232" y="300" width="126" height="34" rx="17" fill="none" stroke="#38e0ff" stroke-opacity="0.5"/>
<text x="295" y="323" class="pill" text-anchor="middle">4 grupos</text>
</g>
</svg>